<?xml version="1.0" standalone="no"?>
<!DOCTYPE svg PUBLIC "-//W3C//DTD SVG 20010904//EN"
 "http://www.w3.org/TR/2001/REC-SVG-20010904/DTD/svg10.dtd">
<svg version="1.0" xmlns="http://www.w3.org/2000/svg"
 width="1024.000000pt" height="1024.000000pt" viewBox="0 0 1024.000000 1024.000000"
 preserveAspectRatio="xMidYMid meet">

<g transform="translate(0.000000,1024.000000) scale(0.100000,-0.100000)"
fill="#65BCCD" stroke="none">
<path d="M6990 7770 l-765 -5 100 -51 c142 -72 279 -149 356 -200 36 -24 76
-47 90 -52 13 -4 172 -8 352 -7 l328 1 -2 -346 -1 -346 46 -72 c51 -78 131
-243 170 -350 13 -37 38 -96 56 -130 17 -35 34 -79 38 -98 6 -31 6 1334 -1
1571 l-2 90 -765 -5z"/>
<path d="M4950 7764 c-217 -27 -553 -124 -754 -218 -149 -70 -359 -192 -481
-279 -106 -75 -299 -256 -421 -395 -320 -365 -531 -917 -560 -1467 -20 -409
122 -937 350 -1299 103 -163 286 -387 417 -511 234 -222 569 -430 846 -525
383 -133 732 -175 1121 -135 375 39 758 183 1097 412 238 162 316 236 560 538
17 21 46 61 65 91 19 29 56 83 81 121 152 227 282 563 335 863 47 262 35 658
-27 913 -90 368 -259 712 -496 1007 -300 374 -810 691 -1321 820 -216 54 -280
62 -537 65 -132 2 -256 1 -275 -1z m570 -316 c251 -40 445 -102 645 -207 638
-332 1042 -891 1151 -1591 22 -147 23 -441 0 -585 -63 -406 -205 -734 -455
-1050 -182 -231 -447 -442 -741 -590 -168 -85 -457 -173 -638 -195 -153 -18
-372 -23 -487 -11 -537 58 -1004 283 -1370 663 -248 256 -406 527 -506 867
-88 302 -106 550 -63 896 35 284 117 516 282 802 78 136 251 338 400 467 89
77 299 228 397 285 63 37 272 130 365 162 318 111 684 142 1020 87z"/>
<path d="M5120 6973 c-216 -23 -419 -69 -560 -128 -139 -57 -336 -175 -432
-258 -280 -244 -445 -491 -527 -792 -119 -434 -80 -851 113 -1222 145 -276
379 -508 693 -684 334 -189 729 -244 1128 -160 229 48 391 115 574 239 240
161 427 382 575 677 111 220 164 486 153 760 -8 177 -27 289 -78 440 -88 264
-200 446 -389 635 -214 214 -437 348 -708 425 -152 43 -203 53 -342 65 -115
10 -134 10 -200 3z"/>
<path d="M7702 4472 c-54 -164 -108 -286 -184 -413 -25 -41 -51 -85 -58 -98
-9 -18 -12 -108 -11 -365 l2 -341 -248 -3 c-266 -3 -313 1 -313 23 0 8 -2 15
-4 15 -18 0 -67 -27 -116 -65 -87 -67 -294 -193 -383 -233 -48 -22 -74 -39
-68 -45 5 -5 297 -10 725 -10 l716 -2 0 848 c0 466 -1 847 -3 847 -2 0 -27
-71 -55 -158z"/>
</g>
</svg>
